<svg version="1.1" id="Capa_1" xmlns="http://www.w3.org/2000/svg" xmlns:xlink="http://www.w3.org/1999/xlink" x="0px" y="0px"
	 width="534.561px" height="534.561px" viewBox="0 0 534.561 534.561" style="enable-background:new 0 0 534.561 534.561;"
	 xml:space="preserve" id="avatar-1">
<g>
	<g>
		<g>
			<path d="M114.23,195.561c4.8,19.3,17.4,34.2,32.3,39.3c17.4,57.2,62.3,116.7,122.9,116.7c60.601,0,105.3-59.3,122.8-116.7
				c14.9-5.2,27.4-20.2,32.301-39.3c6.898-27.4-3.9-53.1-24.5-59.4c0-1.1,0-2.2,0.199-3.2c1.1-5.8,7.6-11.3,7.6-17.5
				c0-6.2-6.4-11.6-7.6-17.5c-1.1-5.9,2.699-13.4,0.4-19c-2.301-5.6-10.201-8.3-13.4-13.4c-3.1-5-2.1-13.4-6.199-18
				c-3.9-4.5-12.4-4.5-17-8.5c-4.602-3.8-5.9-12.2-11.201-15.5c-5-3.2-13.199-1-18.699-3.6c-5.4-2.6-8.801-10.3-14.701-12.2
				c-5.6-1.9-13.1,2.1-19,0.9c-5.799-1.2-10.898-8.1-16.999-8.6c-5.899-0.7-12.3,4.9-18.5,4.9s-12.6-5.5-18.5-4.9
				c-6.2,0.7-11.2,7.4-17,8.6c-6,1.3-13.4-2.8-19-0.9c-5.8,1.9-9.3,9.6-14.7,12.2c-5.6,2.6-13.7,0.4-18.7,3.6
				c-5.2,3.2-6.6,11.6-11.2,15.5c-4.7,3.9-13.1,4-17,8.5c-4,4.6-3,13-6.2,18c-3.2,5.2-11.2,7.8-13.4,13.4c-2.2,5.6,1.6,13.1,0.4,19
				c-1.1,5.8-7.6,11.3-7.6,17.5c0,6.2,6.4,11.6,7.6,17.5c0.4,2.6,0.1,5.4-0.3,8.2C115.031,151.461,108.531,172.861,114.23,195.561z
				 M404.631,190.661c-3.9,15.5-14,24.6-22,25.8l-6.701,0.9l-1.799,6.5c-14.5,53.4-55.201,107.5-104.801,107.5
				s-90.2-54.1-104.799-107.6l-1.8-6.5l-6.7-0.9c-8-1.1-18.1-10.3-22-25.8c-2.9-11.5-1-23.2,3.9-29.8c2-2.7,4.4-4.7,7.3-5.4
				c0.7-0.1,1.3-0.2,2.2-0.2c0.6,0,1.1,0,1.7,0.1l9.5,0.9l1.5-9.5c9.7-64.8,53.6-108.3,109.2-108.3s99.6,43.6,109.301,108.4l1.5,9.5
				l9.5-0.9c1.5-0.1,2.799-0.1,3.9,0.1c1.1,0.2,2.1,0.8,3.1,1.3C404.531,161.661,408.23,176.161,404.631,190.661z"/>
			<path d="M224.031,245.861c-16.1,16.1-14.4,43.9-14.4,43.9s27.8,1.7,43.9-14.4c16.1-16.1,14.4-43.899,14.4-43.899
				S240.13,229.761,224.031,245.861z"/>
			<path d="M268.23,231.461c0,0-1.7,27.8,14.4,43.899c16.1,16.101,43.9,14.4,43.9,14.4s1.699-27.8-14.4-43.9
				C296.131,229.761,268.23,231.461,268.23,231.461z"/>
		</g>
		<path d="M384.23,305.761c-12.801,21.6-27.4,39.899-46.801,49.8c-40.199,20.6-69.999,37.2-69.999,37.2l-0.1-0.1v-0.4l-0.4,0.2
			l-0.4-0.2v0.4l-0.1,0.1c0,0-29.9-16.7-70-37.2c-19.5-10-34.2-28.2-46.8-49.8c-59.5,24.2-100.9,79.7-100.9,128.2
			c0,51.1,0,100.6,0,100.6h218.1h0.9h218.1c0,0,0-49.5,0-100.6C485.33,385.561,443.73,329.961,384.23,305.761z"/>
	</g>
</g>
<g>
</g>
<g>
</g>
<g>
</g>
<g>
</g>
<g>
</g>
<g>
</g>
<g>
</g>
<g>
</g>
<g>
</g>
<g>
</g>
<g>
</g>
<g>
</g>
<g>
</g>
<g>
</g>
<g>
</g>
</svg>

<svg version="1.1" id="Capa_1" xmlns="http://www.w3.org/2000/svg" xmlns:xlink="http://www.w3.org/1999/xlink" x="0px" y="0px"
	 width="530px" height="530px" viewBox="0 0 530 530" style="enable-background:new 0 0 530 530;" xml:space="preserve" id="avatar-2">
<g>
	<g>
		<path d="M261.45,0c-77.5,0-141.2,62.7-147.9,142.7c-7.6,11.6-10.3,28.2-6,45.5c1.8,6.9,4.5,13.2,8,18.8
			c8.2,68.8,34.5,93.4,70.8,102.2c21.1,22.1,47.8,37,78.3,37c30.799,0,57.7-15.3,78.899-37.9c9.602-2.8,18.4-6.899,26.201-12.899
			c0.6-0.601,1.199-1,1.9-1.4c16.898-14,29.199-37.8,34.898-77.9c6.701-7.2,12.201-16.7,14.9-27.7c5.5-21.8-0.1-42.3-12.799-53.3
			C398.35,58.7,336.35,0,261.45,0z M264.35,326.2c-14.7,0-28.6-4.8-41.5-12.8c-21.1-13.301-38.9-35.5-51.4-60.5
			c0.9-4.6,1.8-11.3,2.7-20.3c4.5-45.5,15-82.5,26.5-111.3c8.3-0.9,16.9-3.3,25-7c2.8,2.4,5.6,4.9,8.7,7.3
			c16.6,12.3,36,20.5,55.5,24.2c23,4.4,59,63.2,80.6,73.5c-10.799,37.7-34.299,75.3-64.699,94.2
			C292.949,321.5,279.05,326.2,264.35,326.2z M146.05,208.8c-7.5-2.9-15.8-11.7-19.2-25.4c-4.1-16.3,0.7-32.1,10.5-35.7
			C137.55,168.2,141.25,189,146.05,208.8z M401.949,183.3c-2.299,9.1-6.6,15.9-11.5,20.5c4.301-14,4.5-34.2,1.701-55.8
			C401.35,151.9,405.949,167.4,401.949,183.3z"/>
		<path d="M378.049,309.4c-12.299,20.899-26.398,38.5-45.199,48.1c-38.699,19.8-67.5,35.9-67.5,35.9l-0.1-0.101V392.9l-0.4,0.199
			l-0.4-0.199v0.399l-0.1,0.101c0,0-28.7-16-67.5-35.9c-18.8-9.6-32.9-27.2-45.2-48.1c-57.4,23.3-97.3,76.8-97.3,123.6
			c0,49.2,0,97,0,97h210.2h0.8H475.65c0,0,0-47.8,0-97C475.35,386.3,435.35,332.8,378.049,309.4z"/>
	</g>
</g>
<g>
</g>
<g>
</g>
<g>
</g>
<g>
</g>
<g>
</g>
<g>
</g>
<g>
</g>
<g>
</g>
<g>
</g>
<g>
</g>
<g>
</g>
<g>
</g>
<g>
</g>
<g>
</g>
<g>
</g>
</svg>

<svg version="1.1" id="Capa_1" xmlns="http://www.w3.org/2000/svg" xmlns:xlink="http://www.w3.org/1999/xlink" x="0px" y="0px"
	 width="529.801px" height="529.801px" viewBox="0 0 529.801 529.801" style="enable-background:new 0 0 529.801 529.801;"
	 xml:space="preserve" id="avatar-3">
<g>
	<g>
		<path d="M396.149,121c-14-72.8-65.898-121-131.299-121c-65.4,0-117.4,48.3-131.3,121c-0.4,0.1-0.9,0.2-1.5,0.3
			c-22,5.5-33.6,32.4-26.3,61.2c4.9,19.7,17.8,35.1,33,40.2c17.8,58.8,63.8,120,126,120c62.2,0,108.2-61,126.001-120
			c15.199-5.2,28.1-20.5,33-40.2c7.199-28.8-4.4-55.6-26.301-61C397.149,121.1,396.649,121,396.149,121z M404.45,177.5
			c-4,16.1-14.6,25.6-23,26.8l-6.6,0.9l-1.801,6.4c-15,55.099-57,110.8-108.2,110.8c-51.2,0-93.2-55.801-108.2-110.8l-1.8-6.4
			l-6.6-0.9c-8.4-1.1-18.9-10.8-23-26.8c-4.3-17.2,1.1-33.9,11.8-36.6c0.7-0.2,1.5-0.2,2.4-0.2c0.6,0,1.1,0,1.8,0.1l9.5,0.9l1.5-9.4
			c1.2-8.1,2.9-15.8,5.2-23.2c3.2-1,6.9-1.9,11-2.9c4.6-1.3,9.9-2.4,15.7-3.6c5.7-1.5,12-2.4,18.5-3.5c6.5-1.2,13.4-1.8,20.4-2.8
			c7.1-0.6,14.3-1.5,21.7-1.7c7.4-0.7,14.9-0.4,22.399-0.7c7.5,0.2,15,0.1,22.4,0.8c7.4,0.2,14.6,1.1,21.701,1.7
			c6.898,1,13.898,1.7,20.398,2.8c6.5,1.1,12.801,2,18.5,3.5c5.801,1.1,11.201,2.2,15.9,3.6c2.201,0.7,4.5,1.1,6.5,1.7
			c2.4,7.7,4.1,15.8,5.5,24.3l1.5,9.4l9.5-0.9c1.5-0.1,2.9-0.1,4.1,0.2C403.251,143.4,408.649,160.2,404.45,177.5z M264.85,20.2
			c43,0,79.2,25.2,98.901,65.9c-1.701-1.2-3.4-2.4-5.301-3.7c-5.4-3.9-11.6-7.2-18.5-10.5s-14.301-6-22.1-8.6
			c-8-2.1-16.201-4.5-24.9-5.4c-8.5-1.6-17.4-1.6-26.2-2c-8.8,0.4-17.6,0.4-26.2,2.1c-8.6,1-16.9,3.2-24.9,5.4
			c-7.8,2.6-15.3,5.2-22.2,8.5s-13.1,6.6-18.5,10.5c-2.7,1.9-5.3,3.6-7.7,5.4c-1.3,1.1-2.6,2.2-3.8,3.4
			C182.85,47.6,220.15,20.2,264.85,20.2z"/>
		<path d="M385.05,295.699c-13,22.201-28,40.801-47.9,51c-41.1,21.101-71.699,38.102-71.699,38.102l-0.1-0.102v-0.398l-0.4,0.199
			l-0.4-0.199v0.398l-0.1,0.102c0,0-30.6-17.001-71.7-38.102c-19.9-10.199-34.9-28.899-47.9-51c-61,24.801-103.4,81.5-103.4,131.201
			c0,52.299,0,102.9,0,102.9h223h0.9h223c0,0,0-50.602,0-102.9C488.251,377.1,445.851,320.3,385.05,295.699z"/>
	</g>
</g>
<g>
</g>
<g>
</g>
<g>
</g>
<g>
</g>
<g>
</g>
<g>
</g>
<g>
</g>
<g>
</g>
<g>
</g>
<g>
</g>
<g>
</g>
<g>
</g>
<g>
</g>
<g>
</g>
<g>
</g>
</svg>
